<?xml version="1.0" encoding="utf-8"?>
<svg version="1.1" id="Capa_1" x="0px" y="0px" viewBox="0 0 438.904 438.904" style="enable-background:new 0 0 438.904 438.904;" xmlns="http://www.w3.org/2000/svg">
  <g/>
  <g/>
  <g/>
  <g/>
  <g/>
  <g/>
  <g/>
  <g/>
  <g/>
  <g/>
  <g/>
  <g/>
  <g/>
  <g/>
  <g/>
  <path d="M 433.616 380.549 L 332.472 279.422 C 351.183 251.169 362.137 217.323 362.137 180.905 C 362.137 82.208 282.132 2.204 183.437 2.204 C 84.739 2.204 4.736 82.208 4.736 180.905 C 4.736 279.6 84.739 359.604 183.437 359.604 C 219.855 359.604 253.7 348.65 281.936 329.94 L 383.081 431.085 L 433.616 380.549 Z M 40.476 180.905 C 40.476 102.079 104.611 37.944 183.437 37.944 C 262.261 37.944 326.397 102.079 326.397 180.905 C 326.397 259.729 262.261 323.865 183.437 323.865 C 104.611 323.865 40.476 259.729 40.476 180.905 Z M 248.679 168.824 C 243.533 172.701 237.244 174.792 230.791 174.792 C 218.818 174.792 212.814 160.175 221.231 151.759 C 225.823 147.183 231.704 144.235 238.118 143.305 C 250.181 141.573 255.488 126.597 246.606 117.716 C 237.726 108.834 222.768 114.142 221.017 126.222 C 220.088 132.601 217.138 138.516 212.582 143.072 C 204.094 151.562 189.529 145.539 189.529 133.549 C 189.529 127.062 191.621 120.825 195.498 115.643 C 202.825 105.868 195.981 91.554 183.437 91.554 C 170.892 91.554 164.047 105.868 171.356 115.661 C 175.216 120.825 177.325 127.098 177.325 133.566 C 177.325 145.539 162.761 151.579 154.272 143.091 C 149.68 138.534 146.766 132.637 145.837 126.222 C 144.105 114.159 129.147 108.834 120.266 117.716 C 111.384 126.597 116.691 141.554 128.753 143.305 C 135.133 144.217 141.049 147.183 145.64 151.759 C 154.093 160.228 148.071 174.792 136.08 174.792 C 129.63 174.792 123.393 172.701 118.192 168.824 C 108.417 161.498 94.086 168.377 94.086 180.905 C 94.086 193.432 108.417 200.31 118.192 192.984 C 123.338 189.107 129.63 187.016 136.08 187.016 C 148.089 187.016 154.111 201.58 145.64 210.049 C 141.049 214.625 135.169 217.573 128.753 218.503 C 116.691 220.236 111.384 235.211 120.266 244.092 C 129.147 252.974 144.105 247.667 145.856 235.586 C 146.785 229.207 149.733 223.293 154.29 218.736 C 162.778 210.246 177.342 216.269 177.342 228.259 C 177.342 234.746 175.252 240.983 171.374 246.165 C 164.047 255.904 170.873 270.254 183.437 270.254 C 195.927 270.254 202.878 255.959 195.498 246.13 C 191.638 241.001 189.548 234.746 189.548 228.33 C 189.548 216.323 204.111 210.23 212.6 218.7 C 217.193 223.274 220.105 229.171 221.034 235.568 C 222.786 247.649 237.743 252.956 246.625 244.076 C 255.506 235.211 250.217 220.2 238.083 218.484 C 231.756 217.573 225.842 214.643 221.32 210.104 C 212.778 201.597 218.802 186.998 230.81 186.998 C 237.261 186.998 243.497 189.088 248.697 192.967 C 258.454 200.294 272.787 193.467 272.787 180.905 C 272.787 168.341 258.454 161.498 248.679 168.824 Z M 168.8 200.811 C 164.743 200.811 161.438 197.523 161.438 193.432 C 161.438 189.356 164.762 186.051 168.8 186.051 C 172.892 186.051 176.181 189.356 176.181 193.432 C 176.181 197.523 172.876 200.811 168.8 200.811 Z M 178.2 177.401 C 171.821 177.401 166.656 172.219 166.656 165.839 C 166.656 159.443 171.821 154.278 178.2 154.278 C 184.579 154.278 189.779 159.443 189.779 165.839 C 189.779 172.237 184.579 177.401 178.2 177.401 Z M 200.002 199.507 C 194.588 199.507 190.228 195.128 190.228 189.733 C 190.228 184.336 194.588 179.921 200.002 179.921 C 205.416 179.921 209.795 184.317 209.795 189.733 C 209.795 195.147 205.398 199.507 200.002 199.507 Z" style=""/>
</svg>