<?xml version="1.0" encoding="utf-8"?>
<!-- Generator: Adobe Illustrator 24.1.2, SVG Export Plug-In . SVG Version: 6.00 Build 0)  -->
<svg version="1.1" id="Ebene_1" xmlns="http://www.w3.org/2000/svg" xmlns:xlink="http://www.w3.org/1999/xlink" x="0px" y="0px"
	 viewBox="0 0 256 256" style="enable-background:new 0 0 256 256;" xml:space="preserve">
<g transform="translate(0.000000,1024.000000) scale(0.100000,-0.100000)">
	<path d="M839.6,9646.5c-0.6-2.2-27.8-110.3-60.3-239.9l-58.7-235.9l-106.5-0.9l-106.5-0.6l46.5-185.3
		c25.6-101.5,46.5-186.8,46.5-188.7c0-3.1-45.9-4.1-218.7-4.1c-120.3,0-218.7,0.6-218.7,1.6s27.8,36.6,61.9,79s64.4,80.6,67.2,85
		c7.5,10.9,6.9,35.6-1.2,49c-11.6,18.7-35,26.2-55.9,17.8c-11.6-4.7-25.3-20.3-119.7-138.4C57,8812.1,8,8750.2,6.1,8748.4
		c-4.1-5.6,212.7-276.8,225.9-282.1c5.6-2.2,16.2-3.1,25.3-2.5c21.6,2.2,37.2,16.9,39.4,37.8c0.9,7.8,0.9,17.8-0.3,21.9
		c-0.9,4.1-31.6,44.7-67.8,90l-65.9,82.5l230.6,0.9c137.8,0.3,231.2-0.6,232.1-2.2c0.9-1.6,25-95.9,53.4-209.3l51.5-206.5h565.5
		h565.5l51.2,204.6l50.9,204.6h219c208.1,0,218.4-0.3,214-5.3c-2.5-3.1-33.1-40.9-67.5-84.3c-46.5-58.4-63.4-81.9-65-90.3
		c-4.7-25.3,13.7-51.5,39.1-55.9c26.9-4.4,30.3-0.9,148.4,147.1l107.5,134.6l-109,136.2c-65.9,82.5-112.5,138.1-118.1,141.2
		c-39.4,20.3-83.4-21.9-63.4-60.9c2.8-5.9,34.1-46.5,68.7-89.7l63.1-79h-206.2c-113.4,0-206.2,0.9-206.2,2.5
		c0,1.2,21.9,88.4,48.1,193.4l47.8,191.5l-106.2,0.6l-106.5,0.9l-59.7,239l-59.7,239l-455.2,0.9
		C933.6,9650.3,840.5,9649.7,839.6,9646.5z M1726.2,9362.9l48.4-193.7h-478.9H816.8l48.4,193.7l48.4,193.7h382.1h382.1
		L1726.2,9362.9z M1961.1,9069.2c-0.6-2.5-40.3-160.3-87.8-350.5l-86.2-346.1h-491.4H804.3l-86.2,346.1
		c-47.5,190.3-87.2,348-87.8,350.5c-1.2,4.1,74,4.7,665.4,4.7S1962.4,9073.3,1961.1,9069.2z"/>
	<path d="M972.4,8741.2v-193.7h46.9h46.9l-0.6,193.1l-0.9,192.8l-45.9,0.9l-46.2,0.9V8741.2z"/>
	<path d="M1255.7,8932.7c-1.2-0.9-2.2-88.1-2.2-193.7v-191.5h46.9h46.9v193.7v193.7h-44.7
		C1277.9,8934.9,1256.7,8933.9,1255.7,8932.7z"/>
	<path d="M1547.2,8741.2v-193.7h46.9h46.9v193.7v193.7h-46.9h-46.9V8741.2z"/>
</g>
</svg>
